<svg width="166" height="236" viewBox="0 0 166 236" fill="none" xmlns="http://www.w3.org/2000/svg">
<path d="M87.0804 9.46394C74.0804 2.46394 11.0804 19.4639 8.08035 84.4639C5.08035 149.464 87.0804 155.464 87.0804 155.464C87.0804 155.464 172.08 145.464 155.08 77.4639C138.08 9.46394 100.08 16.4639 87.0804 9.46394Z" stroke="#E63946" stroke-width="16"/>
<ellipse cx="60" cy="72.5" rx="9" ry="9.5" fill="#E63946"/>
<ellipse cx="106.155" cy="74.4799" rx="7" ry="9.5" transform="rotate(-23 106.155 74.4799)" fill="#E63946"/>
<path d="M71.7502 119.755C71.7502 119.755 103.231 119.135 104.464 110.435C105.697 101.735 104.902 99.3999 104.902 99.3999" stroke="#E63946" stroke-width="16"/>
<line x1="88.5" y1="160" x2="88.5" y2="236" stroke="#E63946" stroke-width="11"/>
<path d="M84 174C84 174 27 180 16 191C5.00002 202 84 210 84 220" stroke="#E63946" stroke-width="11"/>
<path d="M92 176C92 176 146 181 138 191C130 201 92 221 92 221" stroke="#E63946" stroke-width="11"/>
</svg>
